<svg xmlns="http://www.w3.org/2000/svg" enable-background="new 0 0 64 64" viewBox="0 0 64 64"><path d="M35.22,38.22c-0.26,0-0.52-0.1-0.71-0.31c-0.37-0.39-0.35-1,0.04-1.37l27.31-25.65l0.17-7.49l-7.46-0.28l-2.76,2.59     l1.32,6.14c0,0.02,0.02,0.11,0.02,0.14c0.05,0.33-0.08,0.65-0.33,0.87c-0.25,0.22-0.59,0.29-0.91,0.2l-6.02-1.78l-2.69,2.53     l0.33,2.95c0.03,0.3-0.08,0.6-0.3,0.81l-3.95,3.7c-0.22,0.2-0.52,0.3-0.81,0.25l-3-0.46l-8.24,7.73c-0.39,0.37-1,0.35-1.37-0.04     c-0.37-0.39-0.35-1,0.04-1.37l8.58-8.06c0.22-0.2,0.52-0.3,0.81-0.25l3,0.46l3.25-3.05l-0.33-2.95c-0.03-0.3,0.08-0.6,0.3-0.81     l3.45-3.24c0.25-0.23,0.61-0.32,0.94-0.22l4.98,1.48l-1.11-5.14c-0.07-0.33,0.04-0.68,0.28-0.91l3.45-3.24     c0.19-0.18,0.44-0.29,0.7-0.26l8.82,0.33c0.53,0.02,0.95,0.46,0.94,0.99l-0.2,8.85c-0.01,0.26-0.12,0.51-0.31,0.68L35.88,37.96     C35.7,38.14,35.46,38.22,35.22,38.22z" fill="#7c3aed"/><path d="M33.31,34.76c-0.26,0-0.52-0.1-0.71-0.31c-0.37-0.39-0.35-1,0.04-1.37L62.29,5.24c0.39-0.37,1-0.35,1.37,0.04     c0.37,0.39,0.35,1-0.04,1.37L33.97,34.5C33.78,34.67,33.55,34.76,33.31,34.76z" fill="#7c3aed"/><path d="M18.78,62.83c-5,0-10-1.98-13.69-5.91c-3.43-3.65-5.24-8.43-5.08-13.44c0.16-5.01,2.25-9.66,5.91-13.09    c3.65-3.43,8.42-5.23,13.44-5.08c5.01,0.16,9.66,2.25,13.1,5.91c3.43,3.65,5.24,8.43,5.08,13.44c-0.16,5.01-2.25,9.66-5.91,13.09    C28.01,61.15,23.39,62.83,18.78,62.83z M18.76,27.24c-4.3,0-8.37,1.61-11.51,4.56c-3.28,3.08-5.16,7.25-5.3,11.74    C1.81,48.04,3.43,52.32,6.5,55.6c6.35,6.76,17.03,7.1,23.79,0.74c6.76-6.36,7.1-17.03,0.74-23.79l0,0    c-3.08-3.28-7.25-5.16-11.74-5.3C19.12,27.24,18.94,27.24,18.76,27.24z" fill="#7c3aed"/><path d="M18.77,51.34c-1.94,0-3.87-0.77-5.3-2.29c-2.74-2.92-2.6-7.53,0.32-10.27c2.92-2.75,7.53-2.6,10.28,0.32l0,0       c2.74,2.92,2.6,7.53-0.32,10.27C22.35,50.68,20.56,51.34,18.77,51.34z M18.77,38.74c-1.31,0-2.62,0.48-3.65,1.44       c-2.14,2.01-2.25,5.39-0.23,7.53c2.01,2.14,5.39,2.25,7.53,0.23c2.14-2.01,2.25-5.39,0.23-7.53l0,0       C21.61,39.31,20.19,38.74,18.77,38.74z" fill="#7c3aed"/></svg>