<svg width="85" height="56" viewBox="0 0 85 56" fill="none" xmlns="http://www.w3.org/2000/svg">
<rect width="85" height="56" fill="white"/>
<g filter="url(#filter0_d_310_2)">
<path d="M36.66 23.96C36.66 22.5733 36.96 21.34 37.56 20.26C38.16 19.1667 38.9933 18.32 40.06 17.72C41.14 17.1067 42.36 16.8 43.72 16.8C45.3867 16.8 46.8133 17.24 48 18.12C49.1867 19 49.98 20.2 50.38 21.72H46.62C46.34 21.1333 45.94 20.6867 45.42 20.38C44.9133 20.0733 44.3333 19.92 43.68 19.92C42.6267 19.92 41.7733 20.2867 41.12 21.02C40.4667 21.7533 40.14 22.7333 40.14 23.96C40.14 25.1867 40.4667 26.1667 41.12 26.9C41.7733 27.6333 42.6267 28 43.68 28C44.3333 28 44.9133 27.8467 45.42 27.54C45.94 27.2333 46.34 26.7867 46.62 26.2H50.38C49.98 27.72 49.1867 28.92 48 29.8C46.8133 30.6667 45.3867 31.1 43.72 31.1C42.36 31.1 41.14 30.8 40.06 30.2C38.9933 29.5867 38.16 28.74 37.56 27.66C36.96 26.58 36.66 25.3467 36.66 23.96ZM59.1144 31.14C57.7944 31.14 56.581 30.8333 55.4744 30.22C54.381 29.6067 53.5077 28.7533 52.8544 27.66C52.2144 26.5533 51.8944 25.3133 51.8944 23.94C51.8944 22.5667 52.2144 21.3333 52.8544 20.24C53.5077 19.1467 54.381 18.2933 55.4744 17.68C56.581 17.0667 57.7944 16.76 59.1144 16.76C60.4344 16.76 61.641 17.0667 62.7344 17.68C63.841 18.2933 64.7077 19.1467 65.3344 20.24C65.9744 21.3333 66.2944 22.5667 66.2944 23.94C66.2944 25.3133 65.9744 26.5533 65.3344 27.66C64.6944 28.7533 63.8277 29.6067 62.7344 30.22C61.641 30.8333 60.4344 31.14 59.1144 31.14ZM59.1144 28.02C60.2344 28.02 61.1277 27.6467 61.7944 26.9C62.4744 26.1533 62.8144 25.1667 62.8144 23.94C62.8144 22.7 62.4744 21.7133 61.7944 20.98C61.1277 20.2333 60.2344 19.86 59.1144 19.86C57.981 19.86 57.0744 20.2267 56.3944 20.96C55.7277 21.6933 55.3944 22.6867 55.3944 23.94C55.3944 25.18 55.7277 26.1733 56.3944 26.92C57.0744 27.6533 57.981 28.02 59.1144 28.02ZM73.457 16.96C74.937 16.96 76.2304 17.2533 77.337 17.84C78.4437 18.4267 79.297 19.2533 79.897 20.32C80.5104 21.3733 80.817 22.5933 80.817 23.98C80.817 25.3533 80.5104 26.5733 79.897 27.64C79.297 28.7067 78.437 29.5333 77.317 30.12C76.2104 30.7067 74.9237 31 73.457 31H68.197V16.96H73.457ZM73.237 28.04C74.5304 28.04 75.537 27.6867 76.257 26.98C76.977 26.2733 77.337 25.2733 77.337 23.98C77.337 22.6867 76.977 21.68 76.257 20.96C75.537 20.24 74.5304 19.88 73.237 19.88H71.617V28.04H73.237Z" fill="#7C3AED"/>
</g>
<path d="M20.13 41.205C20.2567 41.225 20.3717 41.2767 20.475 41.36C20.5817 41.4433 20.665 41.5467 20.725 41.67C20.7883 41.7933 20.82 41.925 20.82 42.065C20.82 42.2417 20.775 42.4017 20.685 42.545C20.595 42.685 20.4633 42.7967 20.29 42.88C20.12 42.96 19.9183 43 19.685 43H18.385V39.515H19.635C19.8717 39.515 20.0733 39.555 20.24 39.635C20.4067 39.7117 20.5317 39.8167 20.615 39.95C20.6983 40.0833 20.74 40.2333 20.74 40.4C20.74 40.6067 20.6833 40.7783 20.57 40.915C20.46 41.0483 20.3133 41.145 20.13 41.205ZM18.84 41.02H19.605C19.8183 41.02 19.9833 40.97 20.1 40.87C20.2167 40.77 20.275 40.6317 20.275 40.455C20.275 40.2783 20.2167 40.14 20.1 40.04C19.9833 39.94 19.815 39.89 19.595 39.89H18.84V41.02ZM19.645 42.625C19.8717 42.625 20.0483 42.5717 20.175 42.465C20.3017 42.3583 20.365 42.21 20.365 42.02C20.365 41.8267 20.2983 41.675 20.165 41.565C20.0317 41.4517 19.8533 41.395 19.63 41.395H18.84V42.625H19.645ZM21.5814 41.62C21.5814 41.34 21.6381 41.095 21.7514 40.885C21.8647 40.6717 22.0197 40.5067 22.2164 40.39C22.4164 40.2733 22.6381 40.215 22.8814 40.215C23.1214 40.215 23.3297 40.2667 23.5064 40.37C23.6831 40.4733 23.8147 40.6033 23.9014 40.76V40.26H24.3614V43H23.9014V42.49C23.8114 42.65 23.6764 42.7833 23.4964 42.89C23.3197 42.9933 23.1131 43.045 22.8764 43.045C22.6331 43.045 22.4131 42.985 22.2164 42.865C22.0197 42.745 21.8647 42.5767 21.7514 42.36C21.6381 42.1433 21.5814 41.8967 21.5814 41.62ZM23.9014 41.625C23.9014 41.4183 23.8597 41.2383 23.7764 41.085C23.6931 40.9317 23.5797 40.815 23.4364 40.735C23.2964 40.6517 23.1414 40.61 22.9714 40.61C22.8014 40.61 22.6464 40.65 22.5064 40.73C22.3664 40.81 22.2547 40.9267 22.1714 41.08C22.0881 41.2333 22.0464 41.4133 22.0464 41.62C22.0464 41.83 22.0881 42.0133 22.1714 42.17C22.2547 42.3233 22.3664 42.4417 22.5064 42.525C22.6464 42.605 22.8014 42.645 22.9714 42.645C23.1414 42.645 23.2964 42.605 23.4364 42.525C23.5797 42.4417 23.6931 42.3233 23.7764 42.17C23.8597 42.0133 23.9014 41.8317 23.9014 41.625ZM27.7903 40.26L26.1403 44.29H25.6703L26.2103 42.97L25.1053 40.26H25.6103L26.4703 42.48L27.3203 40.26H27.7903ZM28.3777 41.62C28.3777 41.34 28.4344 41.095 28.5477 40.885C28.661 40.6717 28.816 40.5067 29.0127 40.39C29.2127 40.2733 29.4344 40.215 29.6777 40.215C29.9177 40.215 30.126 40.2667 30.3027 40.37C30.4794 40.4733 30.611 40.6033 30.6977 40.76V40.26H31.1577V43H30.6977V42.49C30.6077 42.65 30.4727 42.7833 30.2927 42.89C30.116 42.9933 29.9094 43.045 29.6727 43.045C29.4294 43.045 29.2094 42.985 29.0127 42.865C28.816 42.745 28.661 42.5767 28.5477 42.36C28.4344 42.1433 28.3777 41.8967 28.3777 41.62ZM30.6977 41.625C30.6977 41.4183 30.656 41.2383 30.5727 41.085C30.4894 40.9317 30.376 40.815 30.2327 40.735C30.0927 40.6517 29.9377 40.61 29.7677 40.61C29.5977 40.61 29.4427 40.65 29.3027 40.73C29.1627 40.81 29.051 40.9267 28.9677 41.08C28.8844 41.2333 28.8427 41.4133 28.8427 41.62C28.8427 41.83 28.8844 42.0133 28.9677 42.17C29.051 42.3233 29.1627 42.4417 29.3027 42.525C29.4427 42.605 29.5977 42.645 29.7677 42.645C29.9377 42.645 30.0927 42.605 30.2327 42.525C30.376 42.4417 30.4894 42.3233 30.5727 42.17C30.656 42.0133 30.6977 41.8317 30.6977 41.625ZM32.6816 40.705C32.7616 40.5483 32.8749 40.4267 33.0216 40.34C33.1716 40.2533 33.3533 40.21 33.5666 40.21V40.68H33.4466C32.9366 40.68 32.6816 40.9567 32.6816 41.51V43H32.2266V40.26H32.6816V40.705ZM35.8548 41.62C35.8548 41.34 35.9115 41.095 36.0248 40.885C36.1382 40.6717 36.2932 40.5067 36.4898 40.39C36.6898 40.2733 36.9132 40.215 37.1598 40.215C37.3732 40.215 37.5715 40.265 37.7548 40.365C37.9382 40.4617 38.0782 40.59 38.1748 40.75V39.3H38.6348V43H38.1748V42.485C38.0848 42.6483 37.9515 42.7833 37.7748 42.89C37.5982 42.9933 37.3915 43.045 37.1548 43.045C36.9115 43.045 36.6898 42.985 36.4898 42.865C36.2932 42.745 36.1382 42.5767 36.0248 42.36C35.9115 42.1433 35.8548 41.8967 35.8548 41.62ZM38.1748 41.625C38.1748 41.4183 38.1332 41.2383 38.0498 41.085C37.9665 40.9317 37.8532 40.815 37.7098 40.735C37.5698 40.6517 37.4148 40.61 37.2448 40.61C37.0748 40.61 36.9198 40.65 36.7798 40.73C36.6398 40.81 36.5282 40.9267 36.4448 41.08C36.3615 41.2333 36.3198 41.4133 36.3198 41.62C36.3198 41.83 36.3615 42.0133 36.4448 42.17C36.5282 42.3233 36.6398 42.4417 36.7798 42.525C36.9198 42.605 37.0748 42.645 37.2448 42.645C37.4148 42.645 37.5698 42.605 37.7098 42.525C37.8532 42.4417 37.9665 42.3233 38.0498 42.17C38.1332 42.0133 38.1748 41.8317 38.1748 41.625ZM39.9388 39.815C39.8521 39.815 39.7788 39.785 39.7188 39.725C39.6588 39.665 39.6288 39.5917 39.6288 39.505C39.6288 39.4183 39.6588 39.345 39.7188 39.285C39.7788 39.225 39.8521 39.195 39.9388 39.195C40.0221 39.195 40.0921 39.225 40.1488 39.285C40.2088 39.345 40.2388 39.4183 40.2388 39.505C40.2388 39.5917 40.2088 39.665 40.1488 39.725C40.0921 39.785 40.0221 39.815 39.9388 39.815ZM40.1588 40.26V43H39.7038V40.26H40.1588ZM45.0122 39.515V39.885H44.0622V43H43.6072V39.885H42.6522V39.515H45.0122ZM48.3723 41.525C48.3723 41.6117 48.3673 41.7033 48.3573 41.8H46.1673C46.184 42.07 46.2756 42.2817 46.4423 42.435C46.6123 42.585 46.8173 42.66 47.0573 42.66C47.254 42.66 47.4173 42.615 47.5473 42.525C47.6806 42.4317 47.774 42.3083 47.8273 42.155H48.3173C48.244 42.4183 48.0973 42.6333 47.8773 42.8C47.6573 42.9633 47.384 43.045 47.0573 43.045C46.7973 43.045 46.564 42.9867 46.3573 42.87C46.154 42.7533 45.994 42.5883 45.8773 42.375C45.7606 42.1583 45.7023 41.9083 45.7023 41.625C45.7023 41.3417 45.759 41.0933 45.8723 40.88C45.9856 40.6667 46.144 40.5033 46.3473 40.39C46.554 40.2733 46.7906 40.215 47.0573 40.215C47.3173 40.215 47.5473 40.2717 47.7473 40.385C47.9473 40.4983 48.1006 40.655 48.2073 40.855C48.3173 41.0517 48.3723 41.275 48.3723 41.525ZM47.9023 41.43C47.9023 41.2567 47.864 41.1083 47.7873 40.985C47.7106 40.8583 47.6056 40.7633 47.4723 40.7C47.3423 40.6333 47.1973 40.6 47.0373 40.6C46.8073 40.6 46.6106 40.6733 46.4473 40.82C46.2873 40.9667 46.1956 41.17 46.1723 41.43H47.9023ZM52.5679 40.21C52.7812 40.21 52.9712 40.255 53.1379 40.345C53.3046 40.4317 53.4362 40.5633 53.5329 40.74C53.6296 40.9167 53.6779 41.1317 53.6779 41.385V43H53.2279V41.45C53.2279 41.1767 53.1596 40.9683 53.0229 40.825C52.8896 40.6783 52.7079 40.605 52.4779 40.605C52.2412 40.605 52.0529 40.6817 51.9129 40.835C51.7729 40.985 51.7029 41.2033 51.7029 41.49V43H51.2529V41.45C51.2529 41.1767 51.1846 40.9683 51.0479 40.825C50.9146 40.6783 50.7329 40.605 50.5029 40.605C50.2662 40.605 50.0779 40.6817 49.9379 40.835C49.7979 40.985 49.7279 41.2033 49.7279 41.49V43H49.2729V40.26H49.7279V40.655C49.8179 40.5117 49.9379 40.4017 50.0879 40.325C50.2412 40.2483 50.4096 40.21 50.5929 40.21C50.8229 40.21 51.0262 40.2617 51.2029 40.365C51.3796 40.4683 51.5112 40.62 51.5979 40.82C51.6746 40.6267 51.8012 40.4767 51.9779 40.37C52.1546 40.2633 52.3512 40.21 52.5679 40.21ZM55.1793 40.765C55.2693 40.6083 55.4026 40.4783 55.5793 40.375C55.7593 40.2683 55.9676 40.215 56.2043 40.215C56.4476 40.215 56.6676 40.2733 56.8643 40.39C57.0643 40.5067 57.2209 40.6717 57.3343 40.885C57.4476 41.095 57.5043 41.34 57.5043 41.62C57.5043 41.8967 57.4476 42.1433 57.3343 42.36C57.2209 42.5767 57.0643 42.745 56.8643 42.865C56.6676 42.985 56.4476 43.045 56.2043 43.045C55.9709 43.045 55.7643 42.9933 55.5843 42.89C55.4076 42.7833 55.2726 42.6517 55.1793 42.495V44.3H54.7243V40.26H55.1793V40.765ZM57.0393 41.62C57.0393 41.4133 56.9976 41.2333 56.9143 41.08C56.8309 40.9267 56.7176 40.81 56.5743 40.73C56.4343 40.65 56.2793 40.61 56.1093 40.61C55.9426 40.61 55.7876 40.6517 55.6443 40.735C55.5043 40.815 55.3909 40.9333 55.3043 41.09C55.2209 41.2433 55.1793 41.4217 55.1793 41.625C55.1793 41.8317 55.2209 42.0133 55.3043 42.17C55.3909 42.3233 55.5043 42.4417 55.6443 42.525C55.7876 42.605 55.9426 42.645 56.1093 42.645C56.2793 42.645 56.4343 42.605 56.5743 42.525C56.7176 42.4417 56.8309 42.3233 56.9143 42.17C56.9976 42.0133 57.0393 41.83 57.0393 41.62ZM58.2332 41.62C58.2332 41.34 58.2898 41.095 58.4032 40.885C58.5165 40.6717 58.6715 40.5067 58.8682 40.39C59.0682 40.2733 59.2898 40.215 59.5332 40.215C59.7732 40.215 59.9815 40.2667 60.1582 40.37C60.3348 40.4733 60.4665 40.6033 60.5532 40.76V40.26H61.0132V43H60.5532V42.49C60.4632 42.65 60.3282 42.7833 60.1482 42.89C59.9715 42.9933 59.7648 43.045 59.5282 43.045C59.2848 43.045 59.0648 42.985 58.8682 42.865C58.6715 42.745 58.5165 42.5767 58.4032 42.36C58.2898 42.1433 58.2332 41.8967 58.2332 41.62ZM60.5532 41.625C60.5532 41.4183 60.5115 41.2383 60.4282 41.085C60.3448 40.9317 60.2315 40.815 60.0882 40.735C59.9482 40.6517 59.7932 40.61 59.6232 40.61C59.4532 40.61 59.2982 40.65 59.1582 40.73C59.0182 40.81 58.9065 40.9267 58.8232 41.08C58.7398 41.2333 58.6982 41.4133 58.6982 41.62C58.6982 41.83 58.7398 42.0133 58.8232 42.17C58.9065 42.3233 59.0182 42.4417 59.1582 42.525C59.2982 42.605 59.4532 42.645 59.6232 42.645C59.7932 42.645 59.9482 42.605 60.0882 42.525C60.2315 42.4417 60.3448 42.3233 60.4282 42.17C60.5115 42.0133 60.5532 41.8317 60.5532 41.625ZM62.6371 40.635V42.25C62.6371 42.3833 62.6654 42.4783 62.7221 42.535C62.7787 42.5883 62.8771 42.615 63.0171 42.615H63.3521V43H62.9421C62.6887 43 62.4987 42.9417 62.3721 42.825C62.2454 42.7083 62.1821 42.5167 62.1821 42.25V40.635H61.8271V40.26H62.1821V39.57H62.6371V40.26H63.3521V40.635H62.6371Z" fill="#A78BFA"/>
<g clip-path="url(#clip0_310_2)">
<path d="M19.8525 26.2643C19.8525 26.3808 19.8988 26.4926 19.9812 26.575C20.0637 26.6574 20.1754 26.7037 20.292 26.7037H21.5846C21.5046 26.8552 21.3848 26.982 21.2382 27.0704C21.0916 27.1589 20.9236 27.2058 20.7524 27.206H20.292C20.2059 27.2059 20.1218 27.2312 20.0499 27.2786C19.9781 27.326 19.9218 27.3935 19.8879 27.4726C19.8541 27.5517 19.8442 27.639 19.8595 27.7237C19.8749 27.8084 19.9147 27.8867 19.9742 27.9489L21.8157 29.877C21.8555 29.9187 21.9032 29.9522 21.956 29.9755C22.0088 29.9988 22.0657 30.0115 22.1234 30.0128C22.1811 30.0142 22.2384 30.0041 22.2923 29.9833C22.3461 29.9624 22.3952 29.9312 22.437 29.8913C22.4787 29.8514 22.5122 29.8038 22.5355 29.751C22.5588 29.6982 22.5715 29.6413 22.5728 29.5836C22.5741 29.5259 22.5641 29.4685 22.5432 29.4147C22.5224 29.3609 22.4911 29.3117 22.4513 29.27L21.2526 28.015C21.56 27.9263 21.8387 27.7586 22.0609 27.5285C22.2831 27.2984 22.441 27.014 22.5188 26.7037H22.8241C22.9407 26.7037 23.0524 26.6574 23.1349 26.575C23.2173 26.4926 23.2636 26.3808 23.2636 26.2643C23.2636 26.1477 23.2173 26.036 23.1349 25.9536C23.0524 25.8711 22.9407 25.8248 22.8241 25.8248H22.519C22.475 25.6479 22.4045 25.4785 22.31 25.3226H22.8241C22.9406 25.3226 23.0524 25.2763 23.1348 25.1939C23.2172 25.1115 23.2635 24.9997 23.2635 24.8832C23.2635 24.7666 23.2172 24.6549 23.1348 24.5724C23.0524 24.49 22.9406 24.4437 22.8241 24.4437H20.292C20.1754 24.4437 20.0637 24.49 19.9812 24.5724C19.8988 24.6549 19.8525 24.7666 19.8525 24.8832C19.8525 24.9997 19.8988 25.1115 19.9812 25.1939C20.0637 25.2763 20.1754 25.3226 20.292 25.3226H20.7524C20.9236 25.3228 21.0916 25.3696 21.2382 25.4581C21.3848 25.5466 21.5046 25.6734 21.5846 25.8248H20.292C20.1754 25.8248 20.0637 25.8711 19.9812 25.9535C19.8988 26.0359 19.8525 26.1477 19.8525 26.2642V26.2643ZM29.8027 20.8141H18.7354L18.3918 17.4264C18.3352 16.8834 18.1743 16.3564 17.9181 15.8744L17.7267 15.5143L17.7196 15.5003C17.7187 15.4984 17.7177 15.4965 17.7168 15.4947L16.1099 12.3165C15.9818 12.0631 15.7886 11.8484 15.55 11.6945C15.3115 11.5405 15.0363 11.4529 14.7526 11.4406C14.7364 11.4399 14.7201 11.4401 14.7038 11.4412L14.0167 11.4878C11.9577 11.6276 9.89882 11.7671 7.83999 11.9065L6.92423 11.9689C6.77303 11.9641 6.62192 11.957 6.47095 11.9474C6.36355 11.9405 6.25398 11.9321 6.1389 11.9221C6.11758 11.7228 6.03475 11.5351 5.9019 11.3851C5.76905 11.2351 5.59278 11.1301 5.39757 11.0849L2.54622 10.3706C2.43316 10.3423 2.31348 10.3601 2.21351 10.42C2.11355 10.4799 2.04148 10.5771 2.01317 10.6902C1.98485 10.8032 2.00261 10.9229 2.06254 11.0229C2.12246 11.1228 2.21965 11.1949 2.33271 11.2232L5.1881 11.9385L5.19777 11.9408C5.22048 11.946 5.24022 11.96 5.25264 11.9797C5.26507 11.9994 5.26916 12.0232 5.26403 12.0459L3.84179 18.3205C3.83925 18.3318 3.83451 18.3424 3.82785 18.3518C3.82119 18.3613 3.81274 18.3693 3.80298 18.3754C3.79321 18.3816 3.78233 18.3858 3.77095 18.3877C3.75957 18.3897 3.74793 18.3893 3.73667 18.3868L2.53667 18.1147C2.48039 18.102 2.42214 18.1004 2.36525 18.1102C2.30837 18.1199 2.25396 18.1408 2.20513 18.1715C2.15631 18.2023 2.11403 18.2424 2.0807 18.2895C2.04737 18.3366 2.02364 18.3899 2.01088 18.4462C1.99812 18.5024 1.99657 18.5607 2.00632 18.6176C2.01607 18.6745 2.03693 18.7289 2.0677 18.7777C2.09848 18.8265 2.13857 18.8688 2.18569 18.9021C2.23281 18.9355 2.28603 18.9592 2.34232 18.9719L3.54237 19.2439C3.6131 19.26 3.68541 19.2682 3.75794 19.2682C3.97689 19.2676 4.18917 19.1928 4.36009 19.0559C4.53101 18.9191 4.65047 18.7283 4.69896 18.5148L4.70599 18.4837L5.55085 19.0675C5.76173 19.2132 5.99187 19.3289 6.23464 19.4112L7.41179 19.8126C7.24189 19.928 7.10557 20.0864 7.01667 20.2716C6.92778 20.4568 6.88948 20.6622 6.90566 20.867C6.90624 20.8785 6.90724 20.8901 6.9087 20.902C6.93593 21.1913 7.07012 21.46 7.28502 21.6555C7.49991 21.8511 7.78005 21.9595 8.07062 21.9594C8.08427 21.9594 8.09816 21.9592 8.11193 21.9587C8.36845 21.9498 8.62505 21.9408 8.88173 21.9318C8.77681 22.1502 8.73882 22.3949 8.77253 22.6349C8.80623 22.8749 8.91013 23.0996 9.07116 23.2808C9.23219 23.4619 9.44318 23.5914 9.6776 23.653C9.91202 23.7146 10.1594 23.7056 10.3887 23.627L11.116 23.3782V31.4454C11.1167 32.0279 11.3484 32.5864 11.7603 32.9984C12.1722 33.4103 12.7307 33.642 13.3133 33.6426H29.8027C30.3853 33.642 30.9438 33.4103 31.3557 32.9984C31.7677 32.5864 31.9994 32.0279 32 31.4454V23.0113C31.9994 22.4288 31.7677 21.8703 31.3557 21.4584C30.9438 21.0464 30.3853 20.8147 29.8027 20.8141ZM8.08146 21.0803C8.00743 21.0827 7.9353 21.0567 7.87988 21.0075C7.82446 20.9584 7.78995 20.8899 7.78345 20.8161C7.78315 20.8127 7.7828 20.8094 7.78239 20.806L7.78222 20.8029C7.77611 20.7346 7.79456 20.6664 7.83425 20.6104C7.87394 20.5545 7.93228 20.5145 7.99878 20.4977C8.07888 20.4775 8.22507 20.4312 8.4564 20.3576C8.55126 20.3273 8.66019 20.2926 8.74409 20.2668L10.2558 20.7821L9.91796 21.0162C9.30554 21.0378 8.69341 21.0592 8.08146 21.0803ZM11.1966 22.4218L10.1032 22.7957C10.0571 22.8114 10.0081 22.8174 9.9595 22.8131C9.9109 22.8089 9.86372 22.7946 9.82096 22.7711C9.7782 22.7476 9.7408 22.7155 9.71114 22.6767C9.68149 22.638 9.66023 22.5935 9.64872 22.5461C9.63203 22.4756 9.6373 22.4017 9.66383 22.3343C9.69036 22.2669 9.73688 22.2092 9.79714 22.1691L10.2579 21.8499C10.3039 21.8286 10.346 21.7994 10.3821 21.7638L11.2066 21.1926L11.729 21.49C11.4769 21.7516 11.294 22.0718 11.1966 22.4218ZM11.2274 20.1931C11.2033 20.1794 11.178 20.168 11.1518 20.1591L8.90564 19.3932L8.89925 19.3911L6.51712 18.579C6.35136 18.5228 6.19423 18.4438 6.05025 18.3443L5.03189 17.6406C4.99466 17.6149 4.95369 17.5951 4.91042 17.5819L5.99652 12.7907C6.00519 12.7919 6.0138 12.7936 6.02271 12.7943C6.32104 12.8211 6.62009 12.839 6.91948 12.848C6.9329 12.8484 6.94673 12.8483 6.96032 12.8473L7.89958 12.7833C9.95864 12.6442 12.0175 12.5046 14.0762 12.3647L14.7361 12.3199C14.8598 12.3289 14.9791 12.3698 15.0823 12.4386C15.1856 12.5074 15.2693 12.6018 15.3252 12.7125L16.9322 15.8907L16.9463 15.9183C16.9477 15.9211 16.9491 15.9239 16.9506 15.9267L17.1418 16.2865C17.3449 16.6686 17.4725 17.0863 17.5176 17.5167L17.852 20.8141H16.7761L16.4793 18.4054C16.4715 18.3419 16.4499 18.2809 16.4161 18.2266C16.3822 18.1723 16.3369 18.1261 16.2834 18.0911L15.7671 17.7543C15.7642 17.7523 15.7616 17.7501 15.7587 17.7482L14.4068 16.8668C14.2582 16.77 14.0913 16.7048 13.9164 16.6751C13.7416 16.6454 13.5625 16.652 13.3902 16.6943C13.218 16.7367 13.0563 16.814 12.9152 16.9214C12.774 17.0289 12.6565 17.1641 12.5697 17.3188C12.4953 17.4514 12.4449 17.5961 12.4211 17.7462C12.4172 17.7683 12.4142 17.7912 12.4121 17.8133C12.407 17.859 12.4045 17.9051 12.4045 17.9511C12.4036 18.1473 12.4477 18.341 12.5333 18.5174C12.619 18.6939 12.7439 18.8484 12.8984 18.9691L16.2303 21.5923L16.2315 21.5933L16.9291 22.1425C17.003 22.1999 17.0612 22.275 17.0985 22.3609C17.1459 22.4703 17.158 22.5917 17.1333 22.7084C17.1237 22.7518 17.1091 22.7941 17.0897 22.8342C17.0887 22.8363 17.0876 22.8383 17.0867 22.8404C17.0397 22.935 16.9671 23.0145 16.8773 23.07C16.7874 23.1255 16.6837 23.1547 16.5781 23.1543C16.4798 23.1545 16.3832 23.1289 16.298 23.08L11.2274 20.1931ZM17.686 23.518C17.7045 23.496 17.7221 23.4736 17.7391 23.4508H28.1308C28.2093 23.7467 28.3646 24.0166 28.5811 24.233C28.7975 24.4495 29.0674 24.6048 29.3633 24.6833V29.7734C29.0674 29.8519 28.7975 30.0072 28.5811 30.2236C28.3646 30.4401 28.2093 30.71 28.1308 31.0059H14.9852C14.9068 30.71 14.7514 30.4401 14.535 30.2236C14.3185 30.0072 14.0486 29.8519 13.7527 29.7734V24.6833C14.0486 24.6048 14.3185 24.4495 14.535 24.233C14.7514 24.0166 14.9068 23.7467 14.9852 23.4508H15.1729L15.8633 23.8438C16.1573 24.0111 16.5006 24.0701 16.8336 24.0106C17.1666 23.9511 17.4682 23.7768 17.686 23.518ZM15.8076 20.1408L13.441 18.2776C13.3915 18.2388 13.3516 18.1893 13.3243 18.1326C13.297 18.076 13.283 18.0139 13.2834 17.9511C13.2834 17.9366 13.2842 17.9222 13.2858 17.9078C13.2863 17.9041 13.2865 17.9011 13.2869 17.8975C13.2876 17.8937 13.2882 17.89 13.2887 17.8862C13.2962 17.8378 13.3124 17.7912 13.3364 17.7485C13.3643 17.6988 13.4021 17.6553 13.4475 17.6208C13.4928 17.5862 13.5448 17.5614 13.6002 17.5478C13.6555 17.5341 13.7131 17.532 13.7693 17.5415C13.8255 17.5511 13.8792 17.572 13.9269 17.6031L14.3025 17.8481L14.3042 17.8492L15.632 18.7155L15.8076 20.1408ZM31.1211 31.4454C31.1207 31.7949 30.9817 32.13 30.7345 32.3772C30.4874 32.6243 30.1523 32.7633 29.8027 32.7637H13.3133C12.9638 32.7633 12.6287 32.6243 12.3815 32.3772C12.1344 32.13 11.9953 31.7949 11.9949 31.4454V23.0113C11.9953 22.8043 12.0442 22.6003 12.1379 22.4156C12.2316 22.231 12.3673 22.071 12.5342 21.9484L14.1813 22.8862C14.1692 22.9268 14.163 22.969 14.1629 23.0113C14.1626 23.2366 14.073 23.4525 13.9138 23.6118C13.7545 23.7711 13.5385 23.8607 13.3133 23.861C13.1967 23.861 13.085 23.9072 13.0026 23.9897C12.9201 24.0721 12.8738 24.1839 12.8738 24.3004V30.1563C12.8738 30.2728 12.9201 30.3846 13.0026 30.467C13.085 30.5494 13.1967 30.5957 13.3133 30.5957C13.5385 30.596 13.7545 30.6856 13.9138 30.8449C14.073 31.0041 14.1626 31.2201 14.1629 31.4453C14.1629 31.5619 14.2092 31.6737 14.2916 31.7561C14.374 31.8385 14.4858 31.8848 14.6024 31.8848H28.5137C28.6302 31.8848 28.742 31.8385 28.8244 31.7561C28.9068 31.6737 28.9531 31.5619 28.9531 31.4453C28.9534 31.2201 29.043 31.0041 29.2023 30.8449C29.3615 30.6856 29.5775 30.596 29.8027 30.5957C29.9193 30.5957 30.0311 30.5494 30.1135 30.467C30.1959 30.3846 30.2422 30.2728 30.2422 30.1563V24.3004C30.2422 24.1839 30.1959 24.0721 30.1135 23.9897C30.0311 23.9072 29.9193 23.861 29.8027 23.861C29.5775 23.8607 29.3615 23.7711 29.2023 23.6118C29.043 23.4525 28.9534 23.2366 28.9531 23.0113C28.9531 22.8948 28.9068 22.783 28.8244 22.7006C28.742 22.6182 28.6302 22.5719 28.5137 22.5719H18.0238C18.0218 22.3783 17.9811 22.1871 17.9041 22.0095C17.8546 21.8962 17.7906 21.7898 17.7137 21.693H29.8027C30.1523 21.6934 30.4874 21.8324 30.7345 22.0796C30.9817 22.3267 31.1207 22.6618 31.1211 23.0113V31.4454Z" fill="#7C3AED"/>
</g>
<defs>
<filter id="filter0_d_310_2" x="34.66" y="16.76" width="48.157" height="19.38" filterUnits="userSpaceOnUse" color-interpolation-filters="sRGB">
<feFlood flood-opacity="0" result="BackgroundImageFix"/>
<feColorMatrix in="SourceAlpha" type="matrix" values="0 0 0 0 0 0 0 0 0 0 0 0 0 0 0 0 0 0 127 0" result="hardAlpha"/>
<feOffset dy="3"/>
<feGaussianBlur stdDeviation="1"/>
<feComposite in2="hardAlpha" operator="out"/>
<feColorMatrix type="matrix" values="0 0 0 0 0.654902 0 0 0 0 0.545098 0 0 0 0 0.980392 0 0 0 0.3 0"/>
<feBlend mode="normal" in2="BackgroundImageFix" result="effect1_dropShadow_310_2"/>
<feBlend mode="normal" in="SourceGraphic" in2="effect1_dropShadow_310_2" result="shape"/>
</filter>
<clipPath id="clip0_310_2">
<rect width="30" height="30" fill="white" transform="translate(2 7)"/>
</clipPath>
</defs>
</svg>
